<?xml version="1.0" encoding="utf-8"?>
<!-- Generator: Adobe Illustrator 24.2.0, SVG Export Plug-In . SVG Version: 6.00 Build 0)  -->
<svg version="1.1" id="Camada_1" xmlns="http://www.w3.org/2000/svg" xmlns:xlink="http://www.w3.org/1999/xlink" x="0px" y="0px"
	 viewBox="0 0 707 178.1" style="enable-background:new 0 0 707 178.1;" xml:space="preserve">
<style type="text/css">
	.st0{fill:none;stroke:#0089CC;stroke-width:1.37;}
	.st1{fill:none;stroke:#0089CC;stroke-width:1.44;}
	.st2{fill:none;stroke:#0089CC;stroke-width:2;}
	.st3{enable-background:new    ;}
	.st4{fill:#0089CC;}
	.st5{clip-path:url(#SVGID_2_);}
	.st6{fill:#35BBEC;}
	.st7{opacity:0.2;fill:#0089CC;enable-background:new    ;}
	.st8{fill:url(#SVGID_3_);}
	.st9{fill:#FFFFFF;}
</style>
<g>
	<g id="Camada_2_1_">
		<g id="Camada_1-2">
			<line class="st0" x1="0" y1="147.5" x2="333.4" y2="147.5"/>
			<line class="st1" x1="576.9" y1="147.5" x2="707" y2="147.5"/>
			<line class="st2" x1="0" y1="177.1" x2="707" y2="177.1"/>
			<line class="st2" x1="154" y1="14.5" x2="0" y2="14.5"/>
			<line class="st2" x1="707" y1="14.5" x2="223.8" y2="14.5"/>
			<g class="st3">
				<path class="st4" d="M611.1,45.2c-1.3,0-2.1-0.7-2.1-2c0-1.2,0.8-2,2.1-2h3.6l0.9-6.7h-3.1c-1.3,0-2.2-0.7-2.2-2
					c0-1.2,0.9-2,2.2-2h3.7l0.9-6.3c0.2-1.2,1-2,2.1-2c1.6,0,2.4,1,2.2,2.6l-0.8,5.7h7l0.9-6.3c0.2-1.2,1-2,2.1-2
					c1.6,0,2.4,1,2.2,2.6l-0.8,5.7h3.1c1.3,0,2.2,0.8,2.2,2c0,1.3-0.9,2-2.2,2h-3.6l-0.9,6.7h3.1c1.3,0,2.2,0.8,2.2,2
					c0,1.3-0.8,2-2.2,2h-3.7l-0.9,6.3c-0.2,1.2-1,2-2.1,2c-1.6,0-2.4-1-2.2-2.6l0.8-5.7h-7l-0.9,6.3c-0.2,1.2-1,2-2.1,2
					c-1.6,0-2.4-1-2.2-2.6l0.8-5.7H611.1z M626.1,41.3l0.9-6.7h-7l-0.9,6.7H626.1z"/>
				<path class="st4" d="M653.3,22.1c8.1,0,13.2,6.1,13.2,15.8s-5,15.8-13.2,15.8c-8.1,0-13.2-6.1-13.2-15.8S645.2,22.1,653.3,22.1z
					 M653.3,48.9c4.9,0,7.8-4.1,7.8-11c0-6.9-2.9-11-7.8-11s-7.8,4.1-7.8,11C645.5,44.8,648.4,48.9,653.3,48.9z"/>
				<path class="st4" d="M695,41.6c1.6,0,2.6,0.8,2.6,2.4c0,1.5-1.1,2.4-2.6,2.4h-2.1v4.2c0,1.8-1,2.8-2.6,2.8c-1.7,0-2.7-1-2.7-2.8
					v-4.2h-14.3c-1.7,0-2.9-1.1-2.9-2.7c0-1,0.3-1.6,1-2.3l15.6-17.7c0.8-0.9,1.7-1.4,2.8-1.4c1.9,0,3.1,1.4,3.1,3.4v15.8H695z
					 M687.6,41.6V30.1l-10.1,11.5H687.6z"/>
			</g>
			<g class="st3">
				<path class="st4" d="M5.5,167.3c3,0,4,0.8,4,2.7c0,1.9-1.5,3-4.1,3c-1.8,0-3.2-0.5-4-1.4c-0.1-0.2-0.2-0.4-0.2-0.6
					c0-0.5,0.3-0.8,0.8-0.8c0.2,0,0.4,0.1,0.5,0.2c0.7,0.7,1.7,1.1,3,1.1c1.4,0,2.3-0.5,2.3-1.5c0-0.8-0.6-1.1-2.5-1.1
					c-2.9-0.1-3.9-0.8-3.9-2.6c0-1.8,1.6-3,4-3c1.4,0,2.6,0.4,3.4,1.1c0.2,0.1,0.3,0.3,0.3,0.7c0,0.4-0.3,0.8-0.7,0.8
					c-0.3,0-0.5-0.1-0.6-0.2c-0.7-0.6-1.5-0.8-2.5-0.8c-1.3,0-2.2,0.6-2.2,1.5C3.1,167,3.6,167.3,5.5,167.3z"/>
				<path class="st4" d="M17.6,166.9v5.2c0,0.5-0.3,0.8-0.8,0.8c-0.5,0-0.8-0.3-0.8-0.8v-0.1h0c-0.5,0.6-1.3,1-2.3,1
					c-2,0-3.3-1.4-3.3-3.5c0-2.1,1.3-3.5,3.3-3.5c1,0,1.8,0.4,2.3,1h0v-0.1c0-0.5,0.3-0.8,0.8-0.8C17.3,166.1,17.6,166.4,17.6,166.9
					z M13.8,164.6c-0.3-0.3-0.4-0.3-0.6-0.3c-0.3,0-0.5,0.2-0.6,0.6c-0.1,0.2-0.2,0.3-0.4,0.3c-0.4,0-0.6-0.2-0.6-0.6
					c0-0.1,0-0.2,0-0.3c0.3-0.9,0.9-1.4,1.6-1.4c0.4,0,0.8,0.1,1.2,0.6c0.3,0.3,0.4,0.3,0.6,0.3c0.3,0,0.5-0.2,0.6-0.7
					c0.1-0.2,0.2-0.3,0.4-0.3c0.4,0,0.6,0.2,0.6,0.6c0,0.1,0,0.2,0,0.3c-0.3,0.9-0.9,1.4-1.6,1.4C14.5,165.2,14.2,165,13.8,164.6z
					 M16.1,169.5c0-1.2-0.8-2.1-2-2.1c-1.2,0-2,0.9-2,2.1c0,1.2,0.8,2.1,2,2.1C15.3,171.6,16.1,170.8,16.1,169.5z"/>
				<path class="st4" d="M22.6,166c2.1,0,3.6,1.4,3.6,3.5c0,2.1-1.5,3.5-3.6,3.5c-2.1,0-3.6-1.4-3.6-3.5C19,167.4,20.4,166,22.6,166
					z M22.6,171.6c1.2,0,2-0.9,2-2.1c0-1.3-0.8-2.1-2-2.1c-1.2,0-2,0.9-2,2.1C20.5,170.8,21.4,171.6,22.6,171.6z"/>
			</g>
			<g class="st3">
				<path class="st4" d="M35.8,163.5c2.1,0,3.2,1,3.2,3c0,2-1.1,3-3.2,3h-3.3v2.6c0,0.6-0.3,0.9-0.8,0.9c-0.5,0-0.8-0.3-0.8-0.9
					v-7.7c0-0.6,0.3-0.9,0.9-0.9H35.8z M35.6,168c1.1,0,1.6-0.5,1.6-1.5c0-1-0.6-1.5-1.6-1.5h-3.1v3H35.6z"/>
			</g>
			<g class="st3">
				<path class="st4" d="M46.7,166.9v5.2c0,0.5-0.3,0.8-0.8,0.8c-0.5,0-0.8-0.3-0.8-0.8v-0.1h0c-0.5,0.6-1.3,1-2.3,1
					c-2,0-3.3-1.4-3.3-3.5c0-2.1,1.3-3.5,3.3-3.5c1,0,1.8,0.4,2.3,1h0v-0.1c0-0.5,0.3-0.8,0.8-0.8C46.4,166.1,46.7,166.4,46.7,166.9
					z M45.2,169.5c0-1.2-0.8-2.1-2-2.1c-1.2,0-2,0.9-2,2.1c0,1.2,0.8,2.1,2,2.1C44.3,171.6,45.2,170.8,45.2,169.5z"/>
				<path class="st4" d="M54.7,166.9v5.3c0,0.4-0.3,0.8-0.8,0.8c-0.4,0-0.8-0.3-0.8-0.8v-0.1h0c-0.5,0.6-1.2,1-2.2,1
					c-1.8,0-2.8-1.1-2.8-3.1v-3c0-0.5,0.3-0.8,0.8-0.8c0.5,0,0.8,0.3,0.8,0.8v2.9c0,1.2,0.6,1.9,1.7,1.9c1.1,0,1.8-0.8,1.8-2.1v-2.6
					c0-0.5,0.3-0.8,0.8-0.8C54.5,166.1,54.7,166.4,54.7,166.9z"/>
				<path class="st4" d="M57.9,163.8v8.3c0,0.5-0.3,0.8-0.8,0.8c-0.5,0-0.8-0.3-0.8-0.8v-8.3c0-0.5,0.3-0.8,0.8-0.8
					C57.6,163,57.9,163.3,57.9,163.8z"/>
			</g>
			<g class="st3">
				<path class="st4" d="M62.8,166c2.1,0,3.6,1.4,3.6,3.5c0,2.1-1.5,3.5-3.6,3.5c-2.1,0-3.6-1.4-3.6-3.5
					C59.2,167.4,60.7,166,62.8,166z M62.8,171.6c1.2,0,2-0.9,2-2.1c0-1.3-0.8-2.1-2-2.1c-1.2,0-2,0.9-2,2.1
					C60.8,170.8,61.6,171.6,62.8,171.6z"/>
			</g>
			<g class="st3">
				<path class="st4" d="M67.8,174.6c-0.1,0.2-0.3,0.4-0.5,0.4c-0.4,0-0.6-0.3-0.6-0.6c0-0.1,0-0.3,0.1-0.4l1.1-2.5
					c0.1-0.3,0.4-0.5,0.7-0.5c0.5,0,0.8,0.3,0.8,0.8c0,0.2-0.1,0.3-0.2,0.5L67.8,174.6z"/>
				<path class="st4" d="M84.8,169v3.2c0,0.5-0.3,0.8-0.8,0.8s-0.8-0.3-0.8-0.8v-3c0-1.1-0.5-1.7-1.4-1.7c-0.9,0-1.5,0.7-1.5,1.9
					v2.8c0,0.5-0.3,0.8-0.8,0.8c-0.5,0-0.8-0.3-0.8-0.8v-3c0-1.1-0.5-1.7-1.4-1.7c-0.9,0-1.5,0.7-1.5,1.9v2.8c0,0.5-0.3,0.8-0.8,0.8
					c-0.5,0-0.8-0.3-0.8-0.8v-5.2c0-0.5,0.3-0.8,0.8-0.8s0.8,0.3,0.8,0.8h0c0.4-0.6,1.1-0.9,1.8-0.9c0.9,0,1.6,0.4,2,1.1h0
					c0.5-0.7,1.2-1.1,2.3-1.1C83.9,166,84.8,167,84.8,169z"/>
				<path class="st4" d="M93.1,166.9v5.2c0,0.5-0.3,0.8-0.8,0.8c-0.5,0-0.8-0.3-0.8-0.8v-0.1h0c-0.5,0.6-1.3,1-2.3,1
					c-2,0-3.3-1.4-3.3-3.5c0-2.1,1.3-3.5,3.3-3.5c1,0,1.8,0.4,2.3,1h0v-0.1c0-0.5,0.3-0.8,0.8-0.8C92.8,166.1,93.1,166.4,93.1,166.9
					z M91.6,169.5c0-1.2-0.8-2.1-2-2.1c-1.2,0-2,0.9-2,2.1c0,1.2,0.8,2.1,2,2.1C90.7,171.6,91.6,170.8,91.6,169.5z"/>
				<path class="st4" d="M94.6,164.1c0-0.6,0.4-0.9,0.9-0.9c0.6,0,0.9,0.4,0.9,0.9s-0.4,0.9-0.9,0.9C94.9,165,94.6,164.7,94.6,164.1
					z M96.3,166.9v5.2c0,0.5-0.3,0.8-0.8,0.8c-0.5,0-0.8-0.3-0.8-0.8v-5.2c0-0.5,0.3-0.8,0.8-0.8C96,166.1,96.3,166.4,96.3,166.9z"
					/>
				<path class="st4" d="M101.2,166c2.1,0,3.6,1.4,3.6,3.5c0,2.1-1.5,3.5-3.6,3.5c-2.1,0-3.6-1.4-3.6-3.5
					C97.6,167.4,99.1,166,101.2,166z M101.2,171.6c1.2,0,2-0.9,2-2.1c0-1.3-0.8-2.1-2-2.1c-1.2,0-2,0.9-2,2.1
					C99.2,170.8,100,171.6,101.2,171.6z"/>
				<path class="st4" d="M116.3,163.8v8.3c0,0.5-0.3,0.8-0.8,0.8c-0.5,0-0.8-0.3-0.8-0.8v-0.1h0c-0.5,0.6-1.3,1-2.3,1
					c-2,0-3.3-1.4-3.3-3.5c0-2.1,1.3-3.5,3.3-3.5c1,0,1.8,0.4,2.3,1h0v-3.2c0-0.5,0.3-0.8,0.8-0.8C116,163,116.3,163.3,116.3,163.8z
					 M114.8,169.5c0-1.2-0.8-2.1-2-2.1c-1.2,0-2,0.9-2,2.1c0,1.2,0.8,2.1,2,2.1C113.9,171.6,114.8,170.8,114.8,169.5z"/>
				<path class="st4" d="M121.3,173c-2.2,0-3.7-1.4-3.7-3.5c0-2.1,1.5-3.5,3.6-3.5c1.9,0,3.4,1.4,3.4,3.1v0.1c0,0.5-0.4,0.9-0.9,0.9
					h-4.5c0.2,1,1,1.6,2,1.6c0.7,0,1.3-0.3,1.6-0.7c0.2-0.2,0.4-0.3,0.6-0.3c0.4,0,0.7,0.3,0.7,0.7c0,0.2-0.1,0.3-0.2,0.5
					C123.5,172.6,122.5,173,121.3,173z M119.3,168.8h3.9c-0.2-0.9-1-1.5-1.9-1.5S119.5,167.9,119.3,168.8z"/>
				<path class="st4" d="M135.8,171.4c0.5,0,0.8,0.2,0.8,0.7c0,0.4-0.3,0.7-0.8,0.7h-5.5c-0.5,0-0.8-0.3-0.8-0.9v-0.2
					c0-1.9,0.9-3.1,3.3-3.8c1.5-0.4,2-0.9,2-1.6c0-0.8-0.6-1.3-1.7-1.3c-0.8,0-1.6,0.4-2,1.1c-0.2,0.2-0.4,0.4-0.7,0.4
					c-0.4,0-0.8-0.3-0.8-0.8c0-0.2,0-0.3,0.1-0.4c0.7-1.1,1.9-1.7,3.4-1.7c2,0,3.3,1.1,3.3,2.8c0,1.5-0.7,2.3-2.9,2.9
					c-1.8,0.5-2.5,1.1-2.6,2.1H135.8z"/>
				<path class="st4" d="M141.9,163.6c2.4,0,3.9,1.8,3.9,4.7c0,2.9-1.5,4.7-3.9,4.7s-3.9-1.8-3.9-4.7
					C138,165.4,139.5,163.6,141.9,163.6z M141.9,171.6c1.5,0,2.3-1.2,2.3-3.3c0-2.1-0.9-3.3-2.3-3.3c-1.5,0-2.3,1.2-2.3,3.3
					C139.6,170.4,140.4,171.6,141.9,171.6z"/>
				<path class="st4" d="M153.8,171.4c0.5,0,0.8,0.2,0.8,0.7c0,0.4-0.3,0.7-0.8,0.7h-5.5c-0.5,0-0.8-0.3-0.8-0.9v-0.2
					c0-1.9,0.9-3.1,3.3-3.8c1.5-0.4,2-0.9,2-1.6c0-0.8-0.6-1.3-1.7-1.3c-0.8,0-1.6,0.4-2,1.1c-0.2,0.2-0.4,0.4-0.7,0.4
					c-0.4,0-0.8-0.3-0.8-0.8c0-0.2,0-0.3,0.1-0.4c0.7-1.1,1.9-1.7,3.4-1.7c2,0,3.3,1.1,3.3,2.8c0,1.5-0.7,2.3-2.9,2.9
					c-1.8,0.5-2.5,1.1-2.6,2.1H153.8z"/>
				<path class="st4" d="M162.8,171.4c0.5,0,0.8,0.2,0.8,0.7c0,0.4-0.3,0.7-0.8,0.7h-5.5c-0.5,0-0.8-0.3-0.8-0.9v-0.2
					c0-1.9,0.9-3.1,3.3-3.8c1.5-0.4,2-0.9,2-1.6c0-0.8-0.6-1.3-1.7-1.3c-0.8,0-1.6,0.4-2,1.1c-0.2,0.2-0.4,0.4-0.7,0.4
					c-0.4,0-0.8-0.3-0.8-0.8c0-0.2,0-0.3,0.1-0.4c0.7-1.1,1.9-1.7,3.4-1.7c2,0,3.3,1.1,3.3,2.8c0,1.5-0.7,2.3-2.9,2.9
					c-1.8,0.5-2.5,1.1-2.6,2.1H162.8z"/>
			</g>
			<g>
				<defs>
					<rect id="SVGID_1_" x="126.3" y="0.5" width="454.4" height="125.6"/>
				</defs>
				<clipPath id="SVGID_2_">
					<use xlink:href="#SVGID_1_"  style="overflow:visible;"/>
				</clipPath>
				<g class="st5">
					<path class="st4" d="M308.8,38.7v14c-8.6-2.3-22.1-7.8-25.7-1.4c0,2.2,1.9,1.9,4.1,2.6c7.5,1.4,15.7,2.9,21.1,8.8
						c2.2,2.6,3.4,5.8,3.4,9.2c0.8,23.5-29.5,21.2-47.6,15.6V71.8c9.9,4.2,25.2,10.6,29.3,3.5c0.1-2-1.3-2.4-2.9-2.8
						c-5.3-1.2-12-1.6-17.1-4.2c-4.8-2.3-8.5-6.5-8.5-14C265.2,33.1,293.5,33.4,308.8,38.7z"/>
					<path class="st4" d="M364.7,49.9h-26.9v5.4h25.7v13.5h-25.7v8.1h27.3v13.5h-45.5v-54h45.2V49.9z"/>
					<path class="st4" d="M372,36.4h28.6c19.7-2.3,28.9,24.2,10.6,32.6l14.3,21.3h-19.5l-13-19.4h-2.6v19.4H372V36.4z M390.2,49.2
						l0.1,9.1c3.9-0.3,13,1.7,12.6-4.5C403.1,47.3,394.1,49.5,390.2,49.2L390.2,49.2z"/>
					<path class="st4" d="M488.2,90.4h-18.7l-2.6-7.9h-17.3l-2.6,7.9h-18.7l20.4-54h19.4L488.2,90.4z M453.6,70.5h9.3l-4.7-13.9
						L453.6,70.5z"/>
					<path class="st4" d="M536.5,39.5v16.2c-13.3-7.1-28-11.3-28.2,7.8c0.2,19,14.9,14.9,28.2,7.9v16.2
						C472,111.4,472.3,15.4,536.5,39.5z"/>
					<path class="st6" d="M212.8,30.6l7-8.8c-16.8-13-44.1-13.1-60.9-0.1l7.2,8.7C191.3,13.6,212.8,30.6,212.8,30.6z"/>
					<path class="st4" d="M223.5,24.8L216,33l-0.2-0.1c27.6,22.5,9.7,71.7-26.5,70.4c-36,1.3-54-47.5-26.8-70.2l-7.3-8.5
						c-35.5,28.9-12.4,91.7,34.1,90C235.8,116.4,258.9,53.7,223.5,24.8z"/>
					<path class="st4" d="M204.5,69.4l-12.8-35.5l-1,25.2c2.5,1.1,1.6,5.2-1.2,5.1c-2.7,0.1-3.7-3.8-1.4-5l1.4-25.3l-15.1,35.8
						l9.5,20.8h-2.5v4.9h15.8v-5H195L204.5,69.4z"/>
				</g>
			</g>
			<path class="st7" d="M545.6,173.9H375.6c-16.8,0-30.6-16.9-29.6-37.3c0.9-18.6,13.5-33.3,29.1-33.3h170.5
				c16.1,0,29.1,15.8,29.1,35.3l0,0C574.7,158.1,561.7,173.9,545.6,173.9z"/>
			<path class="st4" d="M540.9,169.2H370.9c-16.8,0-30.6-16.9-29.6-37.3c0.9-18.6,13.5-33.3,29.1-33.3h170.5
				c16.1,0,29.1,15.8,29.1,35.3l0,0C570,153.4,557,169.2,540.9,169.2z"/>
			
				<radialGradient id="SVGID_3_" cx="845.9772" cy="126.71" r="98.25" gradientTransform="matrix(0.83 0 0 -1 -210.6 180)" gradientUnits="userSpaceOnUse">
				<stop  offset="0" style="stop-color:#0089CC"/>
				<stop  offset="0.99" style="stop-color:#0089CC;stop-opacity:0"/>
			</radialGradient>
			<path class="st8" d="M540.9,169.2H370.9c-16.8,0-30.6-16.9-29.6-37.3c0.9-18.6,13.5-33.3,29.1-33.3h170.5
				c16.1,0,29.1,15.8,29.1,35.3l0,0C570,153.4,557,169.2,540.9,169.2z"/>
			<g class="st3">
				<path class="st9" d="M405.4,117.4v30.8c0,3.3-2,5.5-4.9,5.5c-2,0-3.9-0.8-5.3-2.6l-18.2-23.9h-0.1v21.8c0,2.9-1.6,4.7-4.4,4.7
					c-2.7,0-4.4-1.7-4.4-4.7v-30.8c0-3.3,2.2-5.5,5-5.5c2.3,0,3.8,0.7,5.1,2.4l18.3,24h0.1v-21.8c0-2.9,1.7-4.7,4.4-4.7
					C403.7,112.7,405.4,114.4,405.4,117.4z"/>
				<path class="st9" d="M442.3,145.1c2.7,0,4.3,1.6,4.3,4.1s-1.6,4.1-4.3,4.1H417c-3,0-4.8-1.8-4.8-4.8v-30.6c0-3,1.8-4.8,4.8-4.8
					h25.3c2.7,0,4.3,1.6,4.3,4.1s-1.6,4.1-4.3,4.1h-21.2v7.9H438c2.7,0,4.2,1.5,4.2,4s-1.5,4-4.2,4h-16.9v8.1H442.3z"/>
				<path class="st9" d="M506.7,117.1c0,0.7-0.1,1.5-0.4,2.3l-11,30.3c-0.9,2.5-2.6,3.8-5.1,3.8c-2.5,0-4.2-1.4-5.1-3.8l-7.4-20.7
					h-0.1l-7.4,20.7c-0.9,2.5-2.6,3.8-5,3.8c-2.5,0-4.3-1.4-5.2-3.8l-10.8-30.2c-0.3-0.9-0.5-1.6-0.5-2.3c0-2.8,1.9-4.5,4.6-4.5
					c2.1,0,3.5,1.1,4.3,3.4l7.6,23h0.1l8.2-23.2c0.7-2.1,2.2-3.2,4.2-3.2c2,0,3.5,1.1,4.3,3.2l8.2,23.4h0.1l7.9-23.6
					c0.7-2,2.2-3.1,4-3.1C504.8,112.7,506.7,114.4,506.7,117.1z"/>
				<path class="st9" d="M527.6,128.8c12.2,0,17,3.8,17,11.9c0,8.6-6.4,13.3-17.8,13.3c-7.6,0-13.3-1.9-16.7-5.6
					c-0.8-0.8-1.2-1.9-1.2-3.2c0-2.4,1.6-4.1,4.2-4.1c1,0,1.9,0.3,2.8,1.1c2.9,2.5,7,3.9,11.6,3.9c5.1,0,8-1.8,8-4.9
					c0-2.6-2.1-3.7-9.3-3.8c-12.1-0.1-16.7-3.8-16.7-11.6c0-8.2,6.8-13.3,17.6-13.3c6,0,10.8,1.5,14.2,4.4c1,0.8,1.6,2,1.6,3.5
					c0,2.4-1.6,4.1-4.2,4.1c-1,0-1.8-0.3-2.7-1c-2.8-2-5.9-3.1-9.5-3.1c-4.7,0-7.9,1.9-7.9,4.9C518.6,127.7,520.8,128.8,527.6,128.8
					z"/>
			</g>
			<rect y="0.6" class="st4" width="84.7" height="13.9"/>
			<g class="st3">
				<path class="st9" d="M6.2,6.5c1.9,0,2.6,0.6,2.6,1.8c0,1.2-0.9,1.9-2.5,1.9c-1.2,0-2-0.2-2.6-0.7C3.6,9.3,3.5,9.2,3.5,9
					c0-0.4,0.3-0.6,0.6-0.6c0.1,0,0.3,0,0.4,0.1C5,8.8,5.5,9,6.2,9C7,9,7.5,8.7,7.5,8.3c0-0.4-0.3-0.6-1.4-0.6
					C4.3,7.7,3.6,7.2,3.6,6c0-1.2,1-1.9,2.5-1.9c1,0,1.6,0.2,2.2,0.6C8.5,4.9,8.6,5,8.6,5.2c0,0.4-0.3,0.6-0.6,0.6
					c-0.2,0-0.3-0.1-0.5-0.2C7.1,5.4,6.7,5.3,6.2,5.3C5.4,5.3,4.9,5.6,4.9,6C4.9,6.4,5.2,6.5,6.2,6.5z"/>
			</g>
			<g class="st3">
				<path class="st9" d="M12.7,4.1c1.8,0,3.1,1.2,3.1,3c0,1.8-1.3,3-3.1,3c-1.8,0-3.1-1.2-3.1-3C9.6,5.4,10.8,4.1,12.7,4.1z M12.7,9
					c1,0,1.7-0.7,1.7-1.8c0-1.1-0.7-1.8-1.7-1.8c-1,0-1.7,0.7-1.7,1.8C10.9,8.2,11.6,9,12.7,9z"/>
				<path class="st9" d="M22.4,4.9v4.5c0,0.4-0.3,0.7-0.7,0.7c-0.4,0-0.6-0.3-0.6-0.7V9.3h0c-0.4,0.5-1,0.8-1.9,0.8
					c-1.6,0-2.4-0.9-2.4-2.7V4.9c0-0.4,0.3-0.7,0.7-0.7s0.7,0.3,0.7,0.7v2.4c0,1,0.5,1.6,1.4,1.6c1,0,1.6-0.7,1.6-1.8V4.9
					c0-0.4,0.3-0.7,0.7-0.7S22.4,4.5,22.4,4.9z"/>
			</g>
			<g class="st3">
				<path class="st9" d="M26.2,6.5c1.9,0,2.6,0.6,2.6,1.8c0,1.2-0.9,1.9-2.5,1.9c-1.2,0-2-0.2-2.6-0.7c-0.1-0.1-0.2-0.3-0.2-0.5
					c0-0.4,0.3-0.6,0.6-0.6c0.1,0,0.3,0,0.4,0.1c0.5,0.3,1,0.5,1.7,0.5c0.8,0,1.3-0.3,1.3-0.7c0-0.4-0.3-0.6-1.4-0.6
					c-1.8,0-2.5-0.5-2.5-1.7c0-1.2,1-1.9,2.5-1.9c1,0,1.6,0.2,2.2,0.6c0.2,0.1,0.3,0.3,0.3,0.5c0,0.4-0.3,0.6-0.6,0.6
					c-0.2,0-0.3-0.1-0.5-0.2c-0.3-0.3-0.8-0.4-1.3-0.4c-0.8,0-1.3,0.3-1.3,0.7C24.9,6.4,25.2,6.5,26.2,6.5z"/>
			</g>
			<g class="st3">
				<path class="st9" d="M32.7,10.2c-1.9,0-3.1-1.2-3.1-3c0-1.8,1.2-3,3.1-3c1.7,0,2.9,1.2,2.9,2.7v0.1c0,0.5-0.3,0.8-0.8,0.8h-3.8
					C31.1,8.5,31.7,9,32.7,9c0.6,0,1.1-0.3,1.4-0.6c0.1-0.2,0.3-0.2,0.5-0.2c0.4,0,0.6,0.2,0.6,0.6c0,0.1,0,0.3-0.1,0.4
					C34.5,9.8,33.7,10.2,32.7,10.2z M30.9,6.6h3.3c-0.2-0.8-0.8-1.3-1.7-1.3S31.1,5.8,30.9,6.6z"/>
			</g>
			<g class="st3">
				<path class="st9" d="M40.4,4.8c0,0.4-0.3,0.7-0.7,0.7c-1.2,0-1.8,0.6-1.8,2v1.9c0,0.4-0.2,0.7-0.7,0.7c-0.4,0-0.7-0.3-0.7-0.7
					V4.9c0-0.4,0.3-0.7,0.7-0.7c0.4,0,0.7,0.3,0.7,0.7v0.2h0c0.4-0.6,1-1,1.8-1C40.1,4.2,40.4,4.4,40.4,4.8z"/>
			</g>
			<g class="st3">
				<path class="st9" d="M46.7,4.9v4.5c0,0.4-0.3,0.7-0.7,0.7c-0.4,0-0.6-0.3-0.6-0.7V9.3h0c-0.4,0.5-1.1,0.8-2,0.8
					c-1.7,0-2.8-1.2-2.8-3c0-1.8,1.1-3,2.8-3c0.9,0,1.5,0.3,2,0.8h0V4.9c0-0.4,0.3-0.7,0.6-0.7C46.5,4.2,46.7,4.5,46.7,4.9z
					 M45.4,7.2c0-1.1-0.7-1.8-1.8-1.8c-1,0-1.7,0.7-1.7,1.8c0,1.1,0.7,1.8,1.7,1.8C44.7,9,45.4,8.2,45.4,7.2z"/>
				<path class="st9" d="M53.3,9.1c-0.5,0.7-1.4,1-2.4,1c-1.8,0-3.1-1.2-3.1-3c0-1.8,1.2-3,3.1-3c0.9,0,1.6,0.3,2.2,0.9
					c0.1,0.1,0.2,0.3,0.2,0.4c0,0.4-0.2,0.6-0.6,0.6c-0.2,0-0.3-0.1-0.4-0.2c-0.4-0.3-0.8-0.5-1.3-0.5c-1,0-1.7,0.7-1.7,1.8
					C49.2,8.2,49.9,9,51,9c0.6,0,1.1-0.2,1.4-0.6c0.1-0.1,0.3-0.2,0.5-0.2c0.4,0,0.6,0.3,0.6,0.6C53.4,8.9,53.4,9,53.3,9.1z"/>
			</g>
			<g class="st3">
				<path class="st9" d="M54.5,9.3c0-0.5,0.3-0.8,0.8-0.8c0.5,0,0.8,0.3,0.8,0.8c0,0.5-0.3,0.8-0.8,0.8C54.8,10.1,54.5,9.8,54.5,9.3
					z"/>
			</g>
			<g class="st3">
				<path class="st9" d="M62.6,9.1c-0.5,0.7-1.4,1-2.4,1c-1.8,0-3.1-1.2-3.1-3c0-1.8,1.2-3,3.1-3c0.9,0,1.6,0.3,2.2,0.9
					c0.1,0.1,0.2,0.3,0.2,0.4c0,0.4-0.2,0.6-0.6,0.6c-0.2,0-0.3-0.1-0.4-0.2c-0.4-0.3-0.8-0.5-1.3-0.5c-1,0-1.7,0.7-1.7,1.8
					c0,1.1,0.7,1.8,1.7,1.8c0.6,0,1.1-0.2,1.4-0.6c0.1-0.1,0.3-0.2,0.5-0.2c0.4,0,0.6,0.3,0.6,0.6C62.7,8.9,62.6,9,62.6,9.1z"/>
				<path class="st9" d="M66.5,4.1c1.8,0,3.1,1.2,3.1,3c0,1.8-1.3,3-3.1,3c-1.8,0-3.1-1.2-3.1-3C63.5,5.4,64.7,4.1,66.5,4.1z
					 M66.5,9c1,0,1.7-0.7,1.7-1.8c0-1.1-0.7-1.8-1.7-1.8c-1,0-1.7,0.7-1.7,1.8C64.8,8.2,65.5,9,66.5,9z"/>
				<path class="st9" d="M79.6,6.7v2.7c0,0.4-0.3,0.7-0.7,0.7s-0.7-0.3-0.7-0.7V6.8c0-1-0.4-1.5-1.2-1.5c-0.8,0-1.3,0.6-1.3,1.7v2.4
					c0,0.4-0.2,0.7-0.7,0.7c-0.4,0-0.7-0.3-0.7-0.7V6.8c0-1-0.4-1.5-1.2-1.5c-0.8,0-1.3,0.6-1.3,1.7v2.4c0,0.4-0.2,0.7-0.7,0.7
					c-0.4,0-0.7-0.3-0.7-0.7V4.9c0-0.4,0.3-0.7,0.7-0.7s0.6,0.3,0.7,0.7h0c0.3-0.5,0.9-0.8,1.6-0.8c0.8,0,1.4,0.3,1.7,0.9h0
					c0.4-0.6,1.1-0.9,2-0.9C78.9,4.1,79.6,5,79.6,6.7z"/>
			</g>
		</g>
	</g>
</g>
</svg>
